<svg xmlns="http://www.w3.org/2000/svg" viewBox="0 0 229.97 159.92"><defs><style>.cls-1{fill:#d3d3d3;}.cls-2{fill:#3781ed;}.cls-3{fill:#3e749c;}.cls-4{fill:#fff;}</style></defs><title>tp_1</title><g id="Layer_2" data-name="Layer 2"><g id="Layer_1-2" data-name="Layer 1"><path class="cls-1" d="M207.53,104.12c-1.33,0-2.67-.08-4,0-2.84.2-3.95-1-3.6-3.85.94-7.57.8-15.27,2.73-22.69a3.12,3.12,0,0,0-.33-2.55c-.81-1.74-1.23-3.79-.17-5.3,4.49-6.39,1.63-13.52,2.18-20.27.34-4.23-3.1-2.53-5-2-12.26,3.6-24.47,7.4-36.7,11.12-14.79,4.5-29.59,9-44.36,13.51a10.86,10.86,0,0,1-6.74,0Q57.94,55.68,4.26,39.34C2.47,38.79-.16,38.9,0,36.1c.15-2.59,2.66-2.59,4.5-3.15Q57.93,16.75,111.33.55a11.91,11.91,0,0,1,7.28,0q52.9,16.13,105.85,32.14c.8.25,1.62.42,2.4.7,1.4.5,3,.84,3.11,2.75.11,2.07-1.66,2.3-3,2.72q-7.38,2.33-14.79,4.46c-2.11.61-3.3,1.47-3.11,4.07.3,4.14.05,8.32.09,12.48,0,3.19-.87,6.66,3,8.71.74.39,1.29,2.13,1.12,3.12-1.39,8.35,1.49,16.38,1.75,24.61C215.24,104.13,215.46,104.13,207.53,104.12Z"/><path class="cls-1" d="M41.91,98.14V65.7c0-7.2.26-7.42,6.87-5.34C69.36,66.81,90,73.24,110.5,79.81a14.14,14.14,0,0,0,9.11,0c21-6.67,42.12-13.2,63.19-19.75,4.93-1.53,5.66-1,5.63,3.94-.12,22.95-.36,45.91-.36,68.87,0,3.49-1.3,5-4.48,6Q150.73,149,117.93,159.39a8.08,8.08,0,0,1-5.28.15C90.78,152.62,68.9,145.75,47,139.09c-3.85-1.16-5.24-2.94-5.14-7C42.09,120.78,41.91,109.46,41.91,98.14Z"/><path class="cls-2" d="M187.92,46.09C165.19,53,142.45,59.75,119.76,66.72a16.19,16.19,0,0,1-10.09-.07c-30.95-9.58-62-19-92.95-28.46-1.53-.47-3-1-4.6-1.6.71-1.88,2.31-1.69,3.42-2Q63.47,20,111.43,5.45a9.43,9.43,0,0,1,5.79-.3q49.6,15.11,99.23,30.08a19.2,19.2,0,0,1,2.26,1.25c-8.41,2-15.1,5.85-23.62,4.19-21.85-4.26-43.87-7.73-65.83-11.45-2.2-.38-3.87-.92-5.34-3-3.54-4.95-11.74-5.67-16.51-1.83-3.55,2.86-3.49,7.29.14,10.16A12.2,12.2,0,0,0,122,34.7a6.7,6.7,0,0,1,5.52-1.24q30.18,5.46,60.38,10.82A1.07,1.07,0,0,1,187.92,46.09Z"/><path class="cls-3" d="M187.92,46.09c0-.6,0-1.21,0-1.81h3.42A3.73,3.73,0,0,1,187.92,46.09Z"/><path class="cls-4" d="M117.16,119.43c0-10,.12-20-.07-29.94,0-3,.83-4.4,3.71-5.29,19.37-5.92,38.74-11.87,58-18.11,4.57-1.48,5.18-.18,5.1,4q-.61,29.94-.68,59.88c0,3.11-1.15,4.3-3.93,5.15-19.36,5.94-38.72,11.92-58,18.14-3.93,1.27-4.39.08-4.32-3.42.17-10.14.06-20.3.06-30.45Z"/><path class="cls-4" d="M46.42,64.64,64,70.12c14.73,4.57,29.43,9.23,44.22,13.63,3,.91,4.27,2.14,4.23,5.46q-.3,30.42-.18,60.83c0,3.58-.89,4.1-4.21,3.05C88.76,147,69.42,141,50.08,135c-2.46-.76-3.77-1.73-3.75-4.76C46.49,108.65,46.42,87.05,46.42,64.64Z"/></g></g></svg>